<?xml version="1.0" encoding="UTF-8" standalone="no"?>
<!-- // https://uxwing.com/volume-silent-line-icon/ -->

<svg
   shape-rendering="geometricPrecision"
   text-rendering="geometricPrecision"
   image-rendering="optimizeQuality"
   fill-rule="evenodd"
   clip-rule="evenodd"
   viewBox="0 0 463 512.112"
   version="1.1"
   id="svg4"
   sodipodi:docname="sound-off.svg"
   inkscape:version="1.1.2 (0a00cf5339, 2022-02-04)"
   xmlns:inkscape="http://www.inkscape.org/namespaces/inkscape"
   xmlns:sodipodi="http://sodipodi.sourceforge.net/DTD/sodipodi-0.dtd"
   xmlns="http://www.w3.org/2000/svg"
   xmlns:svg="http://www.w3.org/2000/svg">
  <defs
     id="defs8" />
  <sodipodi:namedview
     id="namedview6"
     pagecolor="#ffffff"
     bordercolor="#666666"
     borderopacity="1.0"
     inkscape:pageshadow="2"
     inkscape:pageopacity="0.0"
     inkscape:pagecheckerboard="0"
     showgrid="false"
     inkscape:zoom="1.648077"
     inkscape:cx="231.78529"
     inkscape:cy="256.35938"
     inkscape:window-width="1850"
     inkscape:window-height="1016"
     inkscape:window-x="70"
     inkscape:window-y="27"
     inkscape:window-maximized="1"
     inkscape:current-layer="svg4" />
  <path
     fill-rule="nonzero"
     d="M342.144 249.587v195.637c0 10.199-4.103 18.788-10.41 24.992a35.727 35.727 0 01-24.996 10.258v-.064c-8.574-.005-17.27-3.07-24.282-9.827l-88.175-71.64-105.44 106.502c-8.799 8.853-23.116 8.893-31.969.094-8.853-8.799-8.892-23.117-.093-31.969l256.794-259.39 28.571-28.962v.108l82.221-83.054c8.799-8.853 23.116-8.892 31.969-.093 8.853 8.799 8.892 23.116.093 31.969L342.144 249.587zm-124.59 125.848l86.011 69.882c.573.446 1.126.935 1.65 1.469.49.495 1.043.73 1.523.73v-.064c.372 0 .744-.074 1.067-.205.357-.143.652-.324.838-.505.288-.284.479-.798.479-1.518V282.941l-91.568 92.494zM62.988 394.629c-15.659-2.771-29.727-10.365-40.558-21.192C8.593 359.615 0 340.573 0 319.65V180.253c0-20.927 8.593-39.965 22.43-53.787 13.804-13.794 32.856-22.353 53.768-22.353H189.35l92.391-93.522C288.92 3.286 297.909 0 306.738 0c4.617 0 9.205.921 13.455 2.654a35.814 35.814 0 0111.541 7.599c6.297 6.204 10.41 14.778 10.41 24.992v77.741c-5.151 4.26-9.533 8.309-12.226 11.046l-20.796 21.079V35.245c0-.72-.191-1.234-.479-1.518-.182-.181-.476-.353-.838-.5a2.859 2.859 0 00-1.067-.205c-.529 0-1.077.21-1.523.661l-96.46 97.64c-3.031 3.555-7.541 5.812-12.574 5.812H76.198c-11.898 0-22.719 4.852-30.548 12.677-7.791 7.78-12.629 18.557-12.629 30.441V319.65c0 11.889 4.838 22.661 12.629 30.441 7.829 7.825 18.65 12.677 30.548 12.677h18.22l-31.43 31.861z"
     id="path2" />
  <path
     style="fill:#00ff00;stroke-width:0.606768"
     d="M 56.898202,392.92167 C 36.5629,387.43683 18.589894,372.94402 8.9309693,354.24257 5.6028772,347.79877 2.9331291,340.08942 1.4045379,332.50874 0.3752909,327.40443 0.30338389,322.01573 0.30338389,249.98832 c 0,-72.0274 0.071907,-77.41611 1.10115401,-82.52041 5.7053848,-28.2945 24.7038591,-50.25351 51.1415351,-59.11095 11.132026,-3.72957 10.303,-3.68952 76.376027,-3.68952 h 60.19839 L 215.44205,78.121351 C 282.05506,10.940138 286.9441,6.1759227 291.49171,4.0132668 c 7.90875,-3.7610726 15.60826,-4.57204027 23.71737,-2.498081 12.44446,3.1827553 22.38247,12.9952732 25.48016,25.1583852 0.77909,3.059106 0.92102,9.983237 0.92102,44.93241 V 112.922 l -5.54289,4.82254 c -3.04859,2.6524 -10.27743,9.73737 -16.06408,15.74437 l -10.5212,10.92182 -0.0153,-55.38711 -0.0152,-55.387114 -1.36522,-0.515516 c -0.75088,-0.283533 -1.79352,-0.291639 -2.31699,-0.01801 -0.52347,0.273627 -23.02162,22.835877 -49.9959,50.138337 -33.49026,33.897733 -50.02609,50.218123 -52.14041,51.461143 l -3.09629,1.8203 -66.13769,0.32866 c -73.668129,0.36608 -68.525202,0.0608 -77.597426,4.60558 -10.587833,5.30399 -17.904666,13.74549 -22.019541,25.40415 l -1.713249,4.85414 v 77.66627 c 0,86.07971 -0.252366,80.40326 3.958562,89.03963 5.391978,11.05864 14.752685,19.01491 26.986594,22.93766 3.675077,1.1784 5.954206,1.40031 16.914908,1.64695 l 12.667539,0.28504 -15.393529,15.40242 c -8.466443,8.47132 -15.805105,15.38599 -16.308146,15.3659 -0.503034,-0.0201 -2.751492,-0.53195 -4.99657,-1.13749 z"
     id="path880" />
  <path
     style="fill:#00ba00;stroke-width:0.606768;fill-opacity:1"
     d="m 67.047839,510.99418 c -4.124303,-1.36952 -7.171446,-3.19831 -9.913029,-5.94946 -6.775596,-6.79925 -8.410738,-16.5789 -4.24056,-25.36244 1.474222,-3.10512 1.140828,-2.76243 91.23456,-93.77798 C 451.05255,75.840214 426.21386,100.77664 430.40155,98.505154 c 3.53282,-1.916268 4.07814,-2.029078 9.80847,-2.029078 5.30783,0 6.50053,0.202894 9.52413,1.62018 8.71013,4.082794 13.87753,13.649124 12.57148,23.273414 -1.03061,7.5946 0.92482,5.42281 -62.19118,69.07225 l -58.44567,58.93963 -0.0292,100.44428 c -0.0324,111.14977 0.2401,103.53537 -3.99241,111.56512 -2.87447,5.45334 -6.22514,9.19269 -11.07145,12.35574 -5.39384,3.5204 -9.74443,5.21932 -15.43721,6.02826 -7.85531,1.11624 -16.31536,-0.88007 -23.10591,-5.4523 -1.84391,-1.24153 -23.46057,-18.64005 -48.03706,-38.66339 -24.57649,-20.02334 -45.01048,-36.48064 -45.40886,-36.5718 -0.39839,-0.0912 -10.14551,9.32892 -21.66028,20.93349 -90.833341,91.54176 -86.820107,87.59048 -90.945066,89.54099 -4.536633,2.14518 -10.937644,2.75908 -14.933455,1.43224 z m 242.241041,-146.32675 0.14071,-82.52042 -45.95167,46.36366 c -25.27342,25.50001 -45.95167,46.58815 -45.95167,46.86253 0,0.27438 19.79579,16.60976 43.99066,36.30083 38.3808,31.23636 44.22279,35.78359 45.81097,35.65789 l 1.8203,-0.14407 z"
     id="path919" />
  <path
     style="fill:#00ba00;fill-opacity:1;stroke-width:0.606768"
     d="M 55.215867,392.05972 C 42.653586,388.294 31.601132,381.40638 21.79158,371.23052 12.297796,361.38223 6.7211126,351.34424 2.5989315,336.68388 l -1.68579242,-5.99544 -0.001494,-80.09335 c -0.001404,-75.27447 0.0647136,-80.36714 1.09892112,-84.6441 1.7778854,-7.35244 3.9720624,-13.2301 7.4748642,-20.02334 10.0647956,-19.51939 27.1223126,-33.15243 48.7568986,-38.96843 4.137651,-1.11231 7.300871,-1.27015 34.289756,-1.71099 16.352395,-0.2671 44.912725,-0.50704 63.467395,-0.53321 l 33.73579,-0.0476 39.9865,-40.449633 C 273.3106,20.124131 287.43526,6.48718 291.81669,4.2669384 c 6.54846,-3.31835674 15.97754,-4.28706545 23.31159,-2.3949479 11.5489,2.9795124 21.5835,12.5542705 24.86232,23.7230025 0.76655,2.611123 0.99596,10.228315 1.35228,44.900816 l 0.42913,41.756231 -5.3901,4.82617 c -2.96455,2.65439 -10.05488,9.59008 -15.75629,15.41265 l -10.36621,10.58647 -0.40342,-40.59351 C 309.6341,80.15739 309.45233,55.410684 309.45206,47.491138 l -5e-4,-14.399174 -1.52672,-0.383184 c -1.2247,-0.307378 -2.0537,0.102566 -4.19052,2.07221 -1.46508,1.350467 -24.46474,24.297182 -51.11037,50.992703 -26.64563,26.695517 -49.26573,48.937857 -50.2669,49.427427 -1.54485,0.75544 -11.00187,0.95307 -62.49708,1.30609 -33.37223,0.22878 -64.224626,0.65112 -68.56088,0.93855 -7.822201,0.51848 -7.932372,0.54657 -14.030827,3.57802 -10.735946,5.33668 -17.583931,12.92476 -22.290043,24.69905 l -2.21276,5.53614 0.02627,72.43352 c 0.01445,39.83843 0.262612,76.10012 0.551475,80.58152 0.524686,8.13992 0.52822,8.15405 3.566054,14.25904 4.953582,9.95497 12.783941,17.35098 22.77235,21.50917 5.606709,2.33407 10.341585,3.08685 19.804972,3.14868 4.171529,0.0272 8.768231,0.23411 10.214893,0.45966 l 2.630302,0.4101 -14.861569,14.71412 c -11.113735,11.00347 -15.21992,14.70592 -16.282571,14.68161 -0.781553,-0.0179 -3.468849,-0.64638 -5.971766,-1.39667 z"
     id="path995" />
</svg>
