<?xml version="1.0" encoding="UTF-8" standalone="no"?>
<!-- // https://uxwing.com/volume-low-line-icon/ -->

<svg
   shape-rendering="geometricPrecision"
   text-rendering="geometricPrecision"
   image-rendering="optimizeQuality"
   fill-rule="evenodd"
   clip-rule="evenodd"
   viewBox="0 0 482 512.281"
   version="1.1"
   id="svg4"
   sodipodi:docname="sound-on.svg"
   inkscape:version="1.1.2 (0a00cf5339, 2022-02-04)"
   xmlns:inkscape="http://www.inkscape.org/namespaces/inkscape"
   xmlns:sodipodi="http://sodipodi.sourceforge.net/DTD/sodipodi-0.dtd"
   xmlns="http://www.w3.org/2000/svg"
   xmlns:svg="http://www.w3.org/2000/svg">
  <defs
     id="defs8" />
  <sodipodi:namedview
     id="namedview6"
     pagecolor="#ffffff"
     bordercolor="#666666"
     borderopacity="1.0"
     inkscape:pageshadow="2"
     inkscape:pageopacity="0.0"
     inkscape:pagecheckerboard="0"
     showgrid="false"
     inkscape:zoom="1.6475333"
     inkscape:cx="240.9663"
     inkscape:cy="256.44399"
     inkscape:window-width="1850"
     inkscape:window-height="1016"
     inkscape:window-x="70"
     inkscape:window-y="27"
     inkscape:window-maximized="1"
     inkscape:current-layer="svg4" />
  <path
     fill-rule="nonzero"
     d="M437.601 195.375c-3.264-9.757 1.999-20.323 11.756-23.586 9.757-3.263 20.324 1.999 23.587 11.756 6.421 19.066 9.517 48.662 9 76.806-.501 27.58-4.531 54.68-12.331 70.687-4.51 9.271-15.698 13.129-24.97 8.619-9.272-4.511-13.13-15.698-8.619-24.97 5.419-11.125 8.264-32.368 8.677-54.921.448-24.338-1.99-49.225-7.1-64.391zm-72.807 60.763v218.56c0 10.874-4.375 20.031-11.099 26.646a38.105 38.105 0 01-26.651 10.937v-.068c-9.141-.005-18.413-3.273-25.889-10.478l-98.152-79.744H81.243c-22.297 0-42.611-9.126-57.327-23.832C9.162 383.421 0 363.118 0 340.81V192.186c0-22.313 9.162-42.611 23.916-57.349 14.716-14.706 35.03-23.832 57.327-23.832h120.642l98.508-99.713C308.046 3.503 317.626 0 327.044 0a38.104 38.104 0 0126.651 10.932c6.714 6.614 11.099 15.756 11.099 26.646v218.56zm-35.208 218.56V37.578c0-.768-.203-1.316-.511-1.619-.193-.188-.507-.376-.893-.532a3.027 3.027 0 00-1.138-.22c-.559 0-1.149.225-1.624.705L222.575 140.016c-3.232 3.79-8.04 6.197-13.407 6.197H81.243c-12.686 0-24.224 5.174-32.572 13.516-8.305 8.296-13.463 19.786-13.463 32.457V340.81c0 12.676 5.158 24.162 13.463 32.457 8.348 8.342 19.886 13.516 32.572 13.516h127.925v.058a17.465 17.465 0 0111.073 3.931l103.42 84.025a17.44 17.44 0 011.759 1.567c.522.532 1.112.777 1.624.777v-.068c.402 0 .793-.078 1.138-.219.381-.151.7-.345.893-.538.308-.302.511-.851.511-1.618z"
     id="path2" />
  <path
     style="fill:#00b300;stroke-width:0.606968;fill-opacity:1"
     d="m 319.26518,511.0306 c -8.23237,-1.77448 -9.56365,-2.75329 -64.32394,-47.29321 l -51.8811,-42.1981 -64.35328,-0.002 c -68.387454,-0.003 -69.186182,-0.0322 -79.223994,-2.93713 C 29.368283,409.88463 7.299188,385.33798 1.3536578,353.94471 0.39064055,348.85984 0.30348401,341.59918 0.30348401,266.45896 c 0,-76.58519 0.0718926,-82.31755 1.09997929,-87.70688 6.2807736,-32.92441 29.7926887,-57.47829 62.9351467,-65.7242 5.067114,-1.26071 6.342075,-1.28725 71.4097,-1.48678 l 66.25047,-0.20315 46.67302,-47.171422 c 25.67017,-25.944284 47.75322,-48.361162 49.07346,-49.815286 12.82209,-14.12243233 30.30359,-17.7663967 46.38911,-9.6696647 9.16274,4.6121142 16.04333,13.0067707 19.29632,23.5424357 0.9602,3.109845 1.0432,18.397158 1.21279,223.364227 0.1105,133.53781 -0.0412,222.29324 -0.3858,225.794 -0.97953,9.94986 -4.18564,16.81525 -11.05562,23.67389 -8.80021,8.7857 -21.76876,12.59732 -33.93688,9.97447 z m 9.35836,-34.01868 c 0.87304,-0.33501 0.96009,-20.36615 0.96009,-220.92479 V 35.530757 l -1.47345,-0.369814 c -0.8104,-0.203396 -1.83968,-0.140317 -2.28727,0.140178 -0.4476,0.280496 -24.29728,24.27279 -52.99927,53.316209 -28.702,29.04342 -53.00257,53.42944 -54.00129,54.19115 -4.25174,3.24278 -2.46249,3.16733 -75.10668,3.16733 -59.171113,0 -67.853135,0.11655 -71.966035,0.96609 -8.91806,1.84208 -17.00987,6.27465 -23.418309,12.8282 -6.223143,6.36406 -9.729604,12.56751 -11.899352,21.05172 -1.202216,4.70094 -1.227829,6.48375 -1.227829,85.46267 0,90.56932 -0.275226,84.84373 4.559931,94.86148 5.652342,11.71085 16.206862,20.54823 29.126794,24.38811 3.374014,1.00277 8.796818,1.10549 73.74661,1.39694 l 70.10481,0.31457 3.33832,1.60914 c 2.11857,1.02118 22.07821,16.85078 54.62713,43.3237 28.20883,22.94301 52.18599,42.49922 53.28256,43.45824 2.0256,1.77152 2.91367,2.03512 4.63324,1.37525 z"
     id="path898" />
  <path
     style="fill:#00b300;fill-opacity:1;stroke-width:0.606968"
     d="m 448.99516,340.78795 c -8.15814,-2.02502 -13.82069,-8.75007 -14.29777,-16.98053 -0.19715,-3.40126 0.0687,-4.71911 1.89788,-9.40801 5.45541,-13.98434 7.5623,-27.93722 8.10974,-53.70665 0.53743,-25.29855 -1.2363,-44.57411 -5.64116,-61.30377 -2.50105,-9.49901 -2.50857,-13.10564 -0.0375,-17.98205 1.59536,-3.14831 5.16685,-6.80415 8.12109,-8.3129 3.05364,-1.55953 7.78618,-2.25657 11.07987,-1.63194 7.30445,1.38526 12.42905,6.24884 14.93501,14.1743 10.74338,33.97748 11.31544,96.68333 1.20032,131.57282 -2.47978,8.55338 -5.54319,15.21829 -8.32591,18.11427 -4.31401,4.4896 -11.58115,6.81984 -17.04156,5.46446 z"
     id="path1529" />
</svg>
