<?xml version="1.0" encoding="UTF-8" standalone="no"?>
<!-- Created with Inkscape (http://www.inkscape.org/) -->

<svg
   width="210mm"
   height="297mm"
   viewBox="0 0 50 100"
   version="1.1"
   id="svg1"
   sodipodi:docname="yik-green.svg"
   inkscape:version="1.3.2 (091e20e, 2023-11-25, custom)"
   xmlns:inkscape="http://www.inkscape.org/namespaces/inkscape"
   xmlns:sodipodi="http://sodipodi.sourceforge.net/DTD/sodipodi-0.dtd"
   xmlns="http://www.w3.org/2000/svg"
   xmlns:svg="http://www.w3.org/2000/svg">
  <sodipodi:namedview
     id="namedview1"
     pagecolor="#ffffff"
     bordercolor="#666666"
     borderopacity="1.0"
     inkscape:showpageshadow="2"
     inkscape:pageopacity="0.0"
     inkscape:pagecheckerboard="0"
     inkscape:deskcolor="#d1d1d1"
     inkscape:document-units="mm"
     inkscape:zoom="0.25"
     inkscape:cx="-130"
     inkscape:cy="622"
     inkscape:window-width="1536"
     inkscape:window-height="793"
     inkscape:window-x="1912"
     inkscape:window-y="-8"
     inkscape:window-maximized="1"
     inkscape:current-layer="layer1"
     showgrid="false" />
  <defs
     id="defs1" />
  <g
     inkscape:label="Layer 1"
     inkscape:groupmode="layer"
     id="layer1">
    <path
       id="path3366"
       d="m 20.890613,88.987493 c 0.04417,-0.921068 2.593173,-3.40716 5.664504,-5.524598 10.328146,-7.120625 19.136777,-22.529755 16.207489,-28.352232 -0.984425,-1.956709 -1.205514,-1.833275 -3.840452,2.144125 -1.537724,2.321199 -4.273787,5.865332 -6.080141,7.875892 -4.378685,4.873665 -18.49219,15.005015 -20.902797,15.005015 -3.6494572,0 -1.891511,-2.762597 4.665302,-7.331444 7.210824,-5.024587 18.040914,-16.346937 20.335164,-21.259549 1.247714,-2.671594 1.226462,-3.316409 -0.149413,-4.536809 -1.419305,-1.258808 -2.12946,-0.818455 -6.168582,3.825031 -5.839149,6.712834 -19.131363,15.905437 -22.998723,15.905437 -3.7203851,0 -1.8418002,-2.752065 4.825608,-7.069446 8.234838,-5.332289 10.085266,-6.779909 14.565828,-11.395096 4.086896,-4.209652 4.288869,-5.110051 1.33286,-5.942182 -1.596205,-0.449316 -3.531295,0.451764 -7.282931,3.391313 -5.380933,4.21616 -14.964778,9.507821 -17.2473567,9.52302 -3.45923323,0.02304 -0.6036574,-3.16559 7.1509927,-7.98498 7.957562,-4.945534 13.079331,-9.360398 13.079331,-11.274126 0,-0.455345 -1.66774,-0.827896 -3.706088,-0.827896 -8.859091,0 -12.4781682,-3.83445 -12.4781682,-13.220747 0,-7.663612 2.2732072,-10.190255 10.5414392,-11.716649 3.715181,-0.6858498 9.608255,-0.9081422 14.767355,-0.5570119 11.42569,0.7776169 12.981909,2.0863199 12.988871,10.9229759 0.0093,11.0591 -1.429828,12.819687 -11.628741,14.231906 -6.839896,0.947109 -6.824956,2.317759 0.06063,5.577849 15.051015,7.12603 17.215352,20.865615 5.762532,36.581748 -6.405188,8.789562 -19.703472,16.993788 -19.464532,12.008454 z M 38.302227,29.900595 c 1.86155,-0.665306 3.674774,-4.038898 2.656347,-4.942192 -1.233735,-1.094215 -9.780468,-1.478062 -18.525019,-0.832011 -8.675717,0.640971 -9.276988,0.823724 -8.9678,2.725758 0.555664,3.418209 4.76116,4.632653 14.357785,4.146157 4.747361,-0.240674 9.462794,-0.734632 10.478687,-1.097712 z m -4.907504,-10.044532 8.808001,-0.0083 -0.791454,-2.631617 -0.791462,-2.631621 -11.525821,-0.27165 c -12.900924,-0.304036 -15.836285,0.486762 -15.836285,4.266419 0,2.444881 0.107125,2.480586 5.664474,1.888546 3.115481,-0.331898 9.628107,-0.607196 14.472547,-0.611772 z"
       style="display:inline;fill:#00ff00;stroke-width:0.822191"
       inkscape:transform-center-x="5.7727305"
       inkscape:transform-center-y="-0.86590888" />
  </g>
</svg>
